<svg width="28" height="22" viewBox="0 0 28 22" fill="none" xmlns="http://www.w3.org/2000/svg">
<path d="M27.25 11C27.25 16.5025 21.4963 21.25 14 21.25C6.50366 21.25 0.75 16.5025 0.75 11C0.75 5.4975 6.50366 0.75 14 0.75C21.4963 0.75 27.25 5.4975 27.25 11Z" stroke="#999999" stroke-width="1.5"/>
<path d="M16.25 13.5C16.25 17.8237 12.9619 21.25 9 21.25C5.03812 21.25 1.75 17.8237 1.75 13.5C1.75 9.17631 5.03812 5.75 9 5.75C12.9619 5.75 16.25 9.17631 16.25 13.5Z" fill="#0D1F2D" stroke="#0D1F2D" stroke-width="1.5"/>
<line x1="14.1684" y1="5.4345" x2="14.1399" y2="16.4345" stroke="#999999" stroke-width="1.5"/>
<line x1="8.65417" y1="10.9203" x2="19.6541" y2="10.9488" stroke="#999999" stroke-width="1.5"/>
<line y1="-0.75" x2="14" y2="-0.75" transform="matrix(-1 0 0 1 14 22)" stroke="#999999" stroke-width="1.5"/>
<line y1="-0.75" x2="11" y2="-0.75" transform="matrix(0 -1 -1 0 0 21)" stroke="#999999" stroke-width="1.5"/>
</svg>
